<svg xmlns="http://www.w3.org/2000/svg" xmlns:xlink="http://www.w3.org/1999/xlink" version="1.1" height="30px" width="30px" margin="5px" viewBox="0 0 56 70" xml:space="preserve"><g fill="#ff0000"><path d="M11.5600586,36.8994141h4.595459c-0.3647461,1.1672974-0.5617676,2.407959-0.5617676,3.6938477  c0,6.8417969,5.565918,12.4077148,12.4072266,12.4077148c6.8417969,0,12.4077148-5.565918,12.4077148-12.4077148  c0-1.2858887-0.1970215-2.5265503-0.5617676-3.6938477h4.5930176C49.1601562,36.8994141,53,33.0595703,53,28.3393555  c0-3.1894531-1.75-6.0717773-4.5224609-7.5556641c0.1630859-0.8999023,0.2426758-1.7744141,0.2426758-2.6542969  c0-8.3427734-6.7827148-15.1303711-15.1201172-15.1303711c-6.2558594,0-11.7871094,3.7963867-14.059082,9.5454102  c-0.7299805-0.1831055-1.4672852-0.2753906-2.2011719-0.2753906c-4.7402344,0-8.6289062,3.546875-9.1308594,8.1918945  C5.0668945,21.7939453,3,24.8798828,3,28.3393555C3,33.0595703,6.8398438,36.8994141,11.5600586,36.8994141z M28.0009766,51.0009766  c-5.7387695,0-10.4072266-4.6689453-10.4072266-10.4077148s4.668457-10.4077148,10.4072266-10.4077148  s10.4077148,4.6689453,10.4077148,10.4077148S33.7397461,51.0009766,28.0009766,51.0009766z M21.5078125,30.0404663v-5.1244507  c0-3.5805664,2.9125977-6.4936523,6.4931641-6.4936523c1.7368164,0,3.3666992,0.675293,4.5917969,1.9038086  c1.2265625,1.2236328,1.9018555,2.8535156,1.9018555,4.5898438v5.1245117  c-1.8917847-1.168457-4.1114502-1.8549805-6.4936523-1.8549805C25.6189575,28.1855469,23.3994751,28.8720093,21.5078125,30.0404663z   M9.4775391,22.1176758c0.3950195-0.1318359,0.6669922-0.4956055,0.6821289-0.9121094  c0.1411133-3.8896484,3.2954102-6.9365234,7.1801758-6.9365234c0.8237305,0,1.6577148,0.1513672,2.4785156,0.4501953  c0.2548828,0.0922852,0.5371094,0.0776367,0.78125-0.0415039c0.2436523-0.1196289,0.4287109-0.3330078,0.512207-0.5913086  c1.7543945-5.4355469,6.7729492-9.0874023,12.4882812-9.0874023c7.234375,0,13.1201172,5.8901367,13.1201172,13.1303711  c0,0.9819336-0.1162109,1.9614258-0.3544922,2.9946289c-0.1098633,0.4750977,0.1386719,0.9599609,0.5888672,1.1479492  C49.4121094,23.2983398,51,25.6796875,51,28.3393555c0,3.6171875-2.9428711,6.5600586-6.5600586,6.5600586h-5.4269409  c-0.6483765-1.2488403-1.5031128-2.3699341-2.5183716-3.3264771v-6.6569214c0-2.2714844-0.8842773-4.4042969-2.487793-6.0039062  c-1.6005859-1.6054688-3.7338867-2.4897461-6.0058594-2.4897461c-4.6831055,0-8.4931641,3.8100586-8.4931641,8.4936523v6.6568604  c-1.0152588,0.956543-1.8699951,2.0776367-2.5183716,3.3265381h-5.4293823C7.9428711,34.8994141,5,31.956543,5,28.3393555  C5,25.5136719,6.7993164,23.0131836,9.4775391,22.1176758z"/><path d="M28.0009766,36.7358398c-2.1269531,0-3.8569336,1.7304688-3.8569336,3.8574219  c0,1.7789307,1.2164917,3.2651978,2.8569336,3.7088623v2.0108643c0,0.5522461,0.4477539,1,1,1s1-0.4477539,1-1v-2.0108032  c1.640564-0.4436646,2.8574219-1.9299927,2.8574219-3.7089233C31.8583984,38.4663086,30.1279297,36.7358398,28.0009766,36.7358398z   M28.0009766,42.4501953c-1.0239258,0-1.8569336-0.8330078-1.8569336-1.8569336  c0-1.0244141,0.8330078-1.8574219,1.8569336-1.8574219c1.0244141,0,1.8574219,0.8330078,1.8574219,1.8574219  C29.8583984,41.6171875,29.0253906,42.4501953,28.0009766,42.4501953z"/></g></svg>