<svg xmlns="http://www.w3.org/2000/svg" xmlns:xlink="http://www.w3.org/1999/xlink" version="1.1" height="30px" width="30px" margin="5px" viewBox="0 0 64 80" enable-background="new 0 0 64 64" xml:space="preserve"><g fill="#008000"><path d="M38.217,32.466c-3.888-1.944-8.544-1.944-12.433,0c-2.27,1.129-4.194,2.857-5.566,4.995L19.872,38l0.347,0.54  C22.814,42.585,27.219,45,32,45s9.186-2.415,11.782-6.46L44.129,38l-0.347-0.54C42.41,35.321,40.485,33.595,38.217,32.466z M32,43  c-3.879,0-7.471-1.857-9.731-5c1.143-1.586,2.655-2.873,4.408-3.745c0.396-0.198,0.802-0.369,1.214-0.52  c0.285,0.344,0.459,0.782,0.459,1.265c0,1.104-0.896,2-2,2c-0.12,0-0.236-0.015-0.351-0.035C26.815,39.311,29.042,41,31.663,41  c3.311,0,6-2.69,6-6c0-0.194-0.021-0.383-0.04-0.572c1.622,0.865,3.033,2.08,4.108,3.572C39.471,41.143,35.88,43,32,43z M59,7  H23.702l-0.885-0.759C21.755,5.331,18.757,5,17,5H5c-2.757,0-5,2.243-5,5v44c0,2.757,2.243,5,5,5h54c2.757,0,5-2.243,5-5V12  C64,9.243,61.757,7,59,7z M62,54c0,1.654-1.346,3-3,3H5c-1.654,0-3-1.346-3-3V10c0-1.654,1.346-3,3-3h12  c2.315,0,4.194,0.501,4.513,0.758l9.799,8.398C33.173,17.751,36.55,19,39,19h20c1.654,0,3,1.346,3,3V54z M62,18.002  c-0.038-0.029-0.083-0.05-0.122-0.078c-0.083-0.059-0.17-0.109-0.257-0.163c-0.168-0.105-0.342-0.2-0.522-0.284  c-0.098-0.045-0.194-0.089-0.296-0.128c-0.192-0.075-0.392-0.134-0.595-0.185c-0.094-0.023-0.185-0.053-0.28-0.071  C59.626,17.037,59.317,17,59,17H39c-1.968,0-4.893-1.082-6.387-2.362L26.035,9H59c1.654,0,3,1.346,3,3V18.002z"/></g></svg>